<?xml version="1.0" encoding="UTF-8"?><svg id="uuid-466b5060-6f38-4119-82fb-3a7a7b1ef38e" xmlns="http://www.w3.org/2000/svg" viewBox="0 0 28.71 34.5"><defs><style>.uuid-e2baf61b-4907-4606-914b-a9a8e1a9ab65{fill:#fff;}.uuid-25ede919-9ba8-41a7-be38-9f7713baed3e,.uuid-81a5249a-f991-4ba5-955c-c7476c4eb875{fill:none;stroke:#fff;stroke-linecap:round;stroke-linejoin:round;}.uuid-81a5249a-f991-4ba5-955c-c7476c4eb875{stroke-dasharray:0 0 2.39 2.39;}</style></defs><g id="uuid-8520cde2-2f1f-413f-aef7-1ff636696291"><polygon class="uuid-e2baf61b-4907-4606-914b-a9a8e1a9ab65" points="0 27.14 0 13.95 13.11 21.31 13.11 34.5 0 27.14"/><polygon class="uuid-e2baf61b-4907-4606-914b-a9a8e1a9ab65" points="15.6 21.31 28.71 13.95 28.71 27.14 15.6 34.5 15.6 21.31"/><g><polyline class="uuid-25ede919-9ba8-41a7-be38-9f7713baed3e" points="2.57 8.56 1.26 7.83 2.57 7.1"/><line class="uuid-81a5249a-f991-4ba5-955c-c7476c4eb875" x1="4.66" y1="5.92" x2="11.97" y2="1.82"/><polyline class="uuid-25ede919-9ba8-41a7-be38-9f7713baed3e" points="13.01 1.23 14.32 .5 15.63 1.23"/><line class="uuid-81a5249a-f991-4ba5-955c-c7476c4eb875" x1="17.72" y1="2.41" x2="25.03" y2="6.51"/><polyline class="uuid-25ede919-9ba8-41a7-be38-9f7713baed3e" points="26.07 7.1 27.38 7.83 26.07 8.56"/><line class="uuid-81a5249a-f991-4ba5-955c-c7476c4eb875" x1="23.98" y1="9.74" x2="16.67" y2="13.84"/><polyline class="uuid-25ede919-9ba8-41a7-be38-9f7713baed3e" points="15.63 14.43 14.32 15.16 13.01 14.43"/><line class="uuid-81a5249a-f991-4ba5-955c-c7476c4eb875" x1="10.93" y1="13.25" x2="3.62" y2="9.15"/></g></g></svg>